<?xml version="1.0" encoding="utf-8"?>
<svg xmlns="http://www.w3.org/2000/svg" fill="none" height="48" viewBox="0 0 48 48" width="48">
<path clip-rule="evenodd" d="M24.4835 25.6241L23.7038 24.9466C22.9242 24.2691 21.6287 24.4211 20.9193 25.1724C20.0284 26.0756 20.0284 27.6043 20.9711 28.5601L24.4835 31.8671L27.9958 28.5601C28.9385 27.6043 28.9386 26.0758 28.0475 25.1724C27.3382 24.4211 26.0428 24.2692 25.2631 24.9466L24.4835 25.6241Z" fill="#FF5757" fill-rule="evenodd"/>
<path clip-rule="evenodd" d="M14.45 15.74C14.45 10.4098 18.7114 6.06311 23.9995 6.06311C29.2876 6.06311 33.549 10.4098 33.549 15.74C33.549 17.5638 33.0504 19.2716 32.1833 20.7293H36.4527C39.2024 20.7293 41.4314 22.9583 41.4314 25.7079C41.4314 28.4576 39.2024 30.6866 36.4527 30.6866H33.5973L34.9981 35.155C35.8108 37.7476 34.3753 40.523 31.7898 41.3579C29.1978 42.1949 26.4329 40.7648 25.6181 38.1658L25.2638 37.0356H23.0171L22.7647 37.943C22.0349 40.5662 19.3185 42.0863 16.701 41.3363C14.0894 40.5879 12.5641 37.8622 13.2922 35.2449L14.5603 30.6866H11.5469C8.79726 30.6866 6.56824 28.4576 6.56824 25.7079C6.56824 22.9583 8.79726 20.7293 11.5469 20.7293H15.8157C14.9486 19.2716 14.45 17.5638 14.45 15.74ZM23.9995 8.08416C19.8557 8.08416 16.4711 11.4976 16.4711 15.74C16.4711 17.8022 17.2714 19.67 18.572 21.0455L20.1839 22.7503H11.5469C9.91345 22.7503 8.58929 24.0745 8.58929 25.7079C8.58929 27.3414 9.91345 28.6655 11.5469 28.6655H17.2203L15.2393 35.7865C14.8087 37.3344 15.7133 38.9508 17.2578 39.3934C18.7964 39.8343 20.3886 38.9433 20.8175 37.4013L21.4815 35.0146H26.7483L27.5466 37.5612C28.0255 39.0887 29.6454 39.9266 31.1687 39.4347C32.6985 38.9407 33.5505 37.2935 33.0696 35.7596L30.8457 28.6655H36.4527C38.0862 28.6655 39.4103 27.3414 39.4103 25.7079C39.4103 24.0745 38.0862 22.7503 36.4527 22.7503H27.8151L29.427 21.0455C30.7276 19.67 31.5279 17.8022 31.5279 15.74C31.5279 11.4976 28.1433 8.08416 23.9995 8.08416Z" fill="black" fill-rule="evenodd"/>
<path d="M20.8602 14.7107H22.7921V16.6714H20.8602V14.7107Z" fill="black"/>
<path d="M25.6897 14.7107H27.6216V16.6714H25.6897V14.7107Z" fill="black"/>
</svg>