<?xml version="1.0" encoding="utf-8"?>
<svg xmlns="http://www.w3.org/2000/svg" width="48" height="48" viewBox="0 0 48 48" fill="none">
<path fill-rule="evenodd" clip-rule="evenodd" d="M11.3684 32.9684V38.6526C11.3684 38.7224 11.4249 38.779 11.4947 38.779H37.7684C37.8381 38.779 37.8947 38.7224 37.8947 38.6526V9.34739C37.8947 9.27762 37.8381 9.22107 37.7684 9.22107H11.4947C11.4249 9.22107 11.3684 9.27762 11.3684 9.34739V15.5369H10.1052V17.8105H11.3684V20.5895H10.1052V22.8632H11.3684V25.6421H10.1052V27.9158H11.3684V30.6948H10.1052V32.9684H11.3684ZM13.3894 11.2421V15.5369H14.021C14.6489 15.5369 15.1579 16.0458 15.1579 16.6737C15.1579 17.3016 14.6489 17.8105 14.021 17.8105H13.3894V20.5895H14.021C14.6489 20.5895 15.1579 21.0985 15.1579 21.7263C15.1579 22.3542 14.6489 22.8632 14.021 22.8632H13.3894V25.6421H14.021C14.6489 25.6421 15.1579 26.1511 15.1579 26.779C15.1579 27.4068 14.6489 27.9158 14.021 27.9158H13.3894V30.6948H14.021C14.6489 30.6948 15.1579 31.2037 15.1579 31.8316C15.1579 32.4595 14.6489 32.9684 14.021 32.9684H13.3894V36.7579H35.8736V11.2421H13.3894Z" fill="black"/>
<path d="M20.2105 16.5474C20.2105 16.4776 20.267 16.4211 20.3368 16.4211H30.1894C30.2592 16.4211 30.3158 16.4776 30.3158 16.5474V21.3474C30.3158 21.4171 30.2592 21.4737 30.1894 21.4737H20.3368C20.267 21.4737 20.2105 21.4171 20.2105 21.3474V16.5474Z" fill="#FF5757"/>
</svg>