<?xml version="1.0" encoding="utf-8"?>
<svg xmlns="http://www.w3.org/2000/svg" fill="none" height="48" viewBox="0 0 48 48" width="48">
<path clip-rule="evenodd" d="M30.1344 15.0987C30.1394 15.1455 30.144 15.1926 30.148 15.2398H37.0225L39.9163 38.6161H8.08472L10.9785 15.2398H17.8529C17.8569 15.1926 17.8614 15.1455 17.8665 15.0987C18.2011 12.0068 20.8197 9.59998 24.0004 9.59998C27.1812 9.59998 29.7998 12.0068 30.1344 15.0987ZM19.9055 15.0987C20.2264 13.1265 21.9376 11.621 24.0004 11.621C26.0633 11.621 27.7745 13.1265 28.0954 15.0987H19.9055ZM12.3441 20.6592L10.3714 36.595H37.6296L35.7594 21.487C34.5861 24.1069 31.9886 25.8927 29.0186 25.8927H27.0849V25.719C27.0849 25.0332 26.8612 24.3997 26.4827 23.8875H29.0186C31.7762 23.8875 34.0958 21.7882 34.4124 19.006L34.6109 17.2608H13.8064L14.0049 19.006C14.3215 21.7882 16.6411 23.8875 19.3987 23.8875H21.5172C21.1387 24.3997 20.9149 25.0332 20.9149 25.719V25.8927H19.3987C16.1254 25.8927 13.3046 23.7235 12.3441 20.6592Z" fill="black" fill-rule="evenodd"/>
<path d="M20.9152 25.7192C20.9152 24.0154 22.2964 22.6342 24.0002 22.6342C25.704 22.6342 27.0852 24.0154 27.0852 25.7192V27.3822C27.0852 29.086 25.704 30.4672 24.0002 30.4672C22.2964 30.4672 20.9152 29.086 20.9152 27.3822V25.7192Z" fill="#FF5757"/>
</svg>